# AST/ASF file generated using VICON BodyLanguage
# -----------------------------------------------
:version 1.10
:name VICON
:units
  mass 1.0
  length 0.45
  angle deg
:documentation
   .ast/.asf automatically generated from VICON data using
   VICON BodyBuilder and BodyLanguage model FoxedUp or BRILLIANT.MOD
:root
   order TX TY TZ RX RY RZ
   axis XYZ
   position 0 0 0  
   orientation 0 0 0 
:bonedata
  begin
     id 1 
     name lhipjoint
     direction 0.661853 -0.702389 0.261917 
     length 2.64193 
     axis 0 0 0  XYZ
  end
  begin
     id 2 
     name lfemur
     direction 0.34202 -0.939693 0  
     length 7.01722  
     axis 0 0 20  XYZ
    dof rx ry rz
    limits (-160.0 20.0)
           (-70.0 70.0)
           (-60.0 70.0)
  end
  begin
     id 3 
     name ltibia
     direction 0.34202 -0.939693 0   
     length 8.25008   
     axis 0 0 20   XYZ
    dof rx
    limits (-10.0 170.0)
  end
  begin
     id 4 
     name lfoot
     direction 0.0709916 -0.195048 0.978221   
     length 2.31941   
     axis -90 7.62852e-016 20   XYZ
    dof rx rz
    limits (-45.0 90.0)
           (-70.0 20.0)
  end
  begin
     id 5 
     name ltoes
     direction 1.53586e-011 -4.22017e-011 1   
     length 1.16486   
     axis -90 7.62852e-016 20   XYZ
    dof rx
    limits (-90.0 20.0)
  end
  begin
     id 6 
     name rhipjoint
     direction -0.638185 -0.721362 0.268992   
     length 2.57244  
     axis 0 0 0  XYZ 
  end
  begin
     id 7 
     name rfemur
     direction -0.34202 -0.939693 0   
     length 7.07017   
     axis 0 0 -20   XYZ
    dof rx ry rz
    limits (-160.0 20.0)
           (-70.0 70.0)
           (-70.0 60.0)
  end
  begin
     id 8 
     name rtibia
     direction -0.34202 -0.939693 0   
     length 8.20386   
     axis 0 0 -20   XYZ
    dof rx
    limits (-10.0 170.0)
 end
 begin
     id 9 
     name rfoot
     direction -0.0822429 -0.225961 0.970658   
     length 2.32215  
     axis -90 -7.62852e-016 -20   XYZ
    dof rx rz
    limits (-45.0 90.0)
           (-20.0 70.0)
  end
  begin
     id 10 
     name rtoes
     direction -1.53597e-011 -4.21689e-011 1   
     length 1.16333   
     axis -90 -7.62852e-016 -20   XYZ
    dof rx
    limits (-90.0 20.0)
  end
  begin
     id 11 
     name lowerback
     direction -0.0131557 0.998589 -0.0514484   
     length 2.14993   
     axis 0 0 0   XYZ
    dof rx ry rz
    limits (-20.0 45.0)
           (-30.0 30.0)
           (-30.0 30.0)
  end
  begin
     id 12 
     name upperback
     direction -0.000776481 0.999993 0.00352685   
     length 2.15301   
     axis 0 0 0   XYZ
    dof rx ry rz
    limits (-20.0 45.0)
           (-30.0 30.0)
           (-30.0 30.0)
  end
  begin
     id 13 
     name thorax
     direction 0.00438186 0.999609 0.0276143   
     length 2.15424   
     axis 0 0 0   XYZ
    dof rx ry rz
    limits (-20.0 45.0)
           (-30.0 30.0)
           (-30.0 30.0)
  end
  begin
     id 14 
     name lowerneck
     direction -0.0488006 0.998094 0.0377807   
     length 1.90481   
     axis 0 0 0   XYZ
    dof rx ry rz
    limits (-20.0 45.0)
           (-30.0 30.0)
           (-30.0 30.0)
  end
  begin
     id 15 
     name upperneck
     direction 0.0443769 0.990702 -0.12861   
     length 1.91305   
     axis 0 0 0   XYZ
    dof rx ry rz
    limits (-20.0 45.0)
           (-30.0 30.0)
           (-30.0 30.0)
  end
  begin
     id 16
     name head
     direction 0.0165599 0.998647 -0.0492982  
     length 1.92369  
     axis 0 0 0   XYZ
    dof rx ry rz
    limits (-20.0 45.0)
           (-30.0 30.0)
           (-30.0 30.0)
  end
  begin
     id 17 
     name lclavicle
     direction 0.911936 0.410197 -0.0105506  
     length 3.52622  
     axis 0 0 0   XYZ
    dof ry rz
    limits (-20.0 10.0)
           (0.0 20.0)
  end
  begin
     id 18 
     name lhumerus
     direction 1 -4.48974e-011 -2.48591e-028   
     length 5.47651   
     axis 180 -30 -90   XYZ
    dof rx ry rz
    limits (-60.0 90.0)
           (-90.0 90.0)
           (-90.0 90.0)
  end
  begin
     id 19
     name lradius
     direction 1 -4.48938e-011 -4.40099e-027   
     length 3.09058   
     axis 180 -30 -90   XYZ
    dof rx
    limits (-10.0 170.0)
  end
  begin
     id 20
     name lwrist
     direction 1 -4.49042e-011 -2.99852e-027   
     length 1.54529   
     axis 1.95339e-015 90 90   XYZ
    dof ry
    limits (-180.0 0.0)
 end
  begin
     id 21 
     name lhand
     direction 1 -4.48815e-011 -5.98193e-027   
     length 0.771611   
     axis 3.82337e-015 90 90   XYZ
    dof rx rz
    limits (-90.0 90.0)
           (-45.0 45.0)
  end
  begin
     id 22 
     name lfingers
     direction 1 -4.49034e-011 -1.1993e-026   
     length 0.622093   
     axis 7.64668e-015 90 90   XYZ
    dof rx
    limits (0.0 90.0)
  end
  begin
     id 23
     name lthumb
     direction 0.707107 -6.34867e-011 0.707107   
     length 0.893204   
     axis -90 45 -1.62303e-014   XYZ
    dof rx rz
    limits (-45.0 45.0)
           (-45.0 45.0)
  end
  begin
     id 24 
     name rclavicle
     direction -0.93442 0.355634 -0.0195692   
     length 3.62463  
     axis 0 0 0   XYZ 
    dof ry rz
    limits (-10.0 20.0)
           (-20.0 0.0)
  end
  begin
     id 25 
     name rhumerus
     direction -1 -4.48957e-011 -1.19147e-027  
     length 5.14182   
     axis 180 30 90   XYZ
    dof rx ry rz
    limits (-90.0 60.0)
           (-90.0 90.0)
           (-90.0 90.0)
  end
  begin
     id 26 
     name rradius
     direction -1 -4.48952e-011 -3.81062e-027   
     length 3.35565   
     axis 180 30 90   XYZ
    dof rx
    limits (-10.0 170.0)
  end
  begin
     id 27 
     name rwrist
     direction -1 -4.48973e-011 -2.99621e-027   
     length 1.67782   
     axis 1.95339e-015 -90 -90   XYZ
    dof ry
    limits (-180.0 0.0)
  end
  begin
     id 28
     name rhand
     direction -1 -4.48895e-011 -5.98727e-027   
     length 0.801042   
     axis 3.82337e-015 -90 -90   XYZ
    dof rx rz
    limits (-90.0 90.0)
           (-45.0 45.0)
  end
  begin
     id 29
     name rfingers
     direction -1 -4.49065e-011 -1.19972e-026   
     length 0.645821   
     axis 7.64668e-015 -90 -90   XYZ
    dof rx
    limits (0.0 90.0)
  end
  begin
     id 30
     name rthumb
     direction -0.707107 -6.34957e-011 0.707107   
     length 0.927273   
     axis -90 -45 1.62303e-014   XYZ
    dof rx rz
    limits (-45.0 45.0)
           (-45.0 45.0)
  end
:hierarchy
  begin
    root lhipjoint rhipjoint lowerback
    lhipjoint lfemur
    lfemur ltibia
    ltibia lfoot
    lfoot ltoes
    rhipjoint rfemur
    rfemur rtibia
    rtibia rfoot
    rfoot rtoes
    lowerback upperback
    upperback thorax
    thorax lowerneck lclavicle rclavicle
    lowerneck upperneck
    upperneck head
    lclavicle lhumerus
    lhumerus lradius
    lradius lwrist
    lwrist lhand lthumb
    lhand lfingers
    rclavicle rhumerus
    rhumerus rradius
    rradius rwrist
    rwrist rhand rthumb
    rhand rfingers
  end

#!OML:ASF E:\Style4\Style4.ASF
:FULLY-SPECIFIED
:DEGREES
135
root -0.399779 17.2066 -0.943448 6.01805 14.2959 2.74305
lowerback 15.3637 3.49979 0.76533
upperback 6.26856 4.75007 0.243483
thorax -1.90786 2.38664 -0.962864
lowerneck -1.28175 -3.75746 -4.84662
upperneck 2.14887 -4.95244 2.19615
head 1.06928 -2.48758 1.42987
rclavicle 6.55989e-014 -2.46493e-014
rhumerus -16.3206 12.3921 -89.2582
rradius 125.152
rwrist 26.3513
rhand 38.7036 -8.02584
rfingers 7.12502
rthumb 61.3121 -20.3508
lclavicle 6.55989e-014 -2.46493e-014
lhumerus -15.2013 -14.4624 85.0904
lradius 120.883
lwrist -16.0141
lhand 22.0351 45.2992
lfingers 7.12502
lthumb 46.426 68.2142
rfemur -27.107 -10.2709 18.4896
rtibia 49.0845
rfoot -25.488 -21.4526
rtoes -8.25585
lfemur -30.5026 -2.54513 -19.7323
ltibia 45.2174
lfoot -18.9321 1.55922
ltoes -12.0417
136
root -0.392479 17.2307 -0.946709 6.40554 14.4172 2.66639
lowerback 15.2086 3.49805 0.900984
upperback 6.13425 4.76465 0.208561
thorax -1.95286 2.39452 -1.07229
lowerneck -1.463 -3.76109 -5.00434
upperneck 2.38061 -4.94913 2.33411
head 1.18318 -2.48656 1.49667
rclavicle -8.8658e-014 2.62396e-014
rhumerus -16.2549 12.6257 -89.1921
rradius 125.601
rwrist 26.1511
rhand 38.2627 -7.81063
rfingers 7.12502
rthumb 60.94 -20.5647
lclavicle -8.8658e-014 2.62396e-014
lhumerus -15.256 -14.5031 84.6511
lradius 121.435
lwrist -15.9169
lhand 21.9812 45.1085
lfingers 7.12502
lthumb 46.376 68.0448
rfemur -27.3891 -10.2357 18.5932
rtibia 48.7162
rfoot -25.2928 -21.6617
rtoes -8.53399
lfemur -30.7817 -2.58663 -19.6599
ltibia 44.8472
lfoot -18.729 1.43492
ltoes -11.4947
137
root -0.386613 17.2502 -0.94973 6.77558 14.4957 2.70121
lowerback 15.0877 3.54949 0.932775
upperback 6.00925 4.83293 0.125431
thorax -2.00881 2.42808 -1.18453
lowerneck -1.51231 -3.78032 -5.01665
upperneck 2.49593 -4.97378 2.38133
head 1.23125 -2.49897 1.51183
rclavicle 3.1408e-014 -1.51076e-014
rhumerus -16.1884 12.701 -89.1352
rradius 126.048
rwrist 26.0727
rhand 37.8597 -7.49432
rfingers 7.12502
rthumb 60.5985 -20.6306
lclavicle 3.1408e-014 -1.51076e-014
lhumerus -15.2257 -14.7035 84.2202
lradius 121.945
lwrist -15.9335
lhand 21.8189 45.1002
lfingers 7.12502
lthumb 46.2256 68.1003
rfemur -27.6525 -10.2679 18.5833
rtibia 48.4491
rfoot -25.1196 -21.6001
rtoes -8.41259
lfemur -31.0226 -2.6556 -19.707
ltibia 44.5345
lfoot -18.5137 1.48147
ltoes -11.6608
138
root -0.382969 17.2676 -0.954354 7.11687 14.5813 2.69857
lowerback 15.0137 3.58716 0.915711
upperback 5.87095 4.87828 0.0931507
thorax -2.1126 2.44829 -1.21694
lowerneck -1.46223 -3.76552 -4.95474
upperneck 2.51124 -4.95552 2.29437
head 1.22188 -2.49067 1.47433
rclavicle 4.77083e-015 3.97569e-015
rhumerus -16.0619 12.8563 -88.9598
rradius 126.474
rwrist 25.9036
rhand 37.3504 -7.32262
rfingers 7.12502
rthumb 60.1648 -20.9287
lclavicle 4.77083e-015 3.97569e-015
lhumerus -15.1765 -14.8447 83.8167
lradius 122.404
lwrist -15.9342
lhand 21.6503 45.1168
lfingers 7.12502
lthumb 46.0693 68.1824
rfemur -27.9265 -10.309 18.6274
rtibia 48.2957
rfoot -25.0983 -21.1843
rtoes -7.06869
lfemur -31.3054 -2.71117 -19.7054
ltibia 44.3023
lfoot -18.3397 1.66189
ltoes -12.6829
139
root -0.380912 17.2814 -0.961726 7.41962 14.6847 2.65376
lowerback 14.99 3.58704 0.895836
upperback 5.74978 4.87561 0.108758
thorax -2.23068 2.44409 -1.19311
lowerneck -1.45733 -3.7419 -4.99155
upperneck 2.50688 -4.92132 2.22845
head 1.21731 -2.47474 1.46045
rclavicle 7.51406e-014 -4.21423e-014
rhumerus -15.7283 13.073 -88.657
rradius 126.833
rwrist 25.6174
rhand 36.9407 -7.18789
rfingers 7.12502
rthumb 59.8145 -21.1615
lclavicle 7.51406e-014 -4.21423e-014
lhumerus -15.0773 -14.7656 83.475
lradius 122.867
lwrist -16.003
lhand 21.8785 44.8514
lfingers 7.12502
lthumb 46.2808 67.828
rfemur -28.2723 -10.3782 18.7272
rtibia 48.2639
rfoot -24.9941 -21.0103
rtoes -6.60074
lfemur -31.6179 -2.77628 -19.639
ltibia 44.1445
lfoot -18.2219 1.74441
ltoes -13.1683
140
root -0.376817 17.2878 -0.971443 7.73519 14.7617 2.62913
lowerback 14.9211 3.58103 0.95852
upperback 5.65456 4.87428 0.062214
thorax -2.28486 2.44303 -1.2755
lowerneck -1.5021 -3.74522 -5.00357
upperneck 2.49168 -4.92324 2.22968
head 1.22072 -2.47548 1.46222
rclavicle -4.37326e-014 -7.15625e-015
rhumerus -15.2547 13.3029 -88.3749
rradius 127.126
rwrist 25.3004
rhand 36.3931 -7.21429
rfingers 7.12502
rthumb 59.344 -21.6652
lclavicle -4.37326e-014 -7.15625e-015
lhumerus -14.8871 -14.6843 83.0803
lradius 123.303
lwrist -16.0307
lhand 22.1055 44.4432
lfingers 7.12502
lthumb 46.4913 67.3303
rfemur -28.7087 -10.5172 18.8118
rtibia 48.3433
rfoot -24.7629 -21.067
rtoes -7.40853
lfemur -31.9847 -2.82774 -19.6008
ltibia 44.0804
lfoot -18.0763 1.63729
ltoes -12.9006
141
root -0.372039 17.2889 -0.983669 8.07042 14.8361 2.71252
lowerback 14.8777 3.57653 0.968273
upperback 5.55132 4.86646 -0.0210722
thorax -2.36229 2.4382 -1.36775
lowerneck -1.49972 -3.73015 -5.03052
upperneck 2.47493 -4.90205 2.21478
head 1.21453 -2.46522 1.46273
rclavicle -3.57812e-015 -2.14687e-014
rhumerus -14.7632 13.4957 -88.067
rradius 127.389
rwrist 25.075
rhand 35.8986 -7.102
rfingers 7.12502
rthumb 58.9172 -21.9709
lclavicle -3.57812e-015 -2.14687e-014
lhumerus -14.6703 -14.6193 82.6369
lradius 123.683
lwrist -15.7932
lhand 21.8287 44.1501
lfingers 7.12502
lthumb 46.2346 67.1463
rfemur -29.2127 -10.7428 18.7746
rtibia 48.5466
rfoot -24.5801 -20.9865
rtoes -8.05279
lfemur -32.3986 -2.91297 -19.6822
ltibia 44.1111
lfoot -17.9628 1.50096
ltoes -12.3043
142
root -0.368242 17.2861 -0.996912 8.36264 14.9408 2.75723
lowerback 14.9032 3.56495 1.01049
upperback 5.43758 4.85526 -0.0776762
thorax -2.48723 2.43092 -1.45515
lowerneck -1.42885 -3.69656 -5.09587
upperneck 2.41074 -4.85946 2.2337
head 1.18288 -2.44413 1.48269
rclavicle 3.18055e-014 1.19271e-014
rhumerus -14.4217 13.5626 -87.7757
rradius 127.696
rwrist 24.9704
rhand 35.4899 -7.00866
rfingers 7.12502
rthumb 58.5631 -22.2138
lclavicle 3.18055e-014 1.19271e-014
lhumerus -14.4326 -14.5787 82.1505
lradius 124.043
lwrist -15.3021
lhand 21.2509 44.301
lfingers 7.12502
lthumb 45.6985 67.52
rfemur -29.7428 -11.011 18.7695
rtibia 48.8796
rfoot -24.5113 -20.7544
rtoes -8.13112
lfemur -32.855 -2.99446 -19.7232
ltibia 44.2559
lfoot -17.906 1.45009
ltoes -12.4929
143
root -0.364955 17.2753 -1.0113 8.61919 15.0536 2.72598
lowerback 14.9548 3.54519 1.10065
upperback 5.32783 4.84125 -0.107096
thorax -2.62044 2.42209 -1.54215
lowerneck -1.32153 -3.6545 -5.10213
upperneck 2.24205 -4.80823 2.23261
head 1.10907 -2.41777 1.48738
rclavicle -8.54774e-014 2.14687e-014
rhumerus -14.1012 13.489 -87.5029
rradius 127.99
rwrist 24.9426
rhand 35.3188 -6.81525
rfingers 7.12502
rthumb 58.4145 -22.1588
lclavicle -8.54774e-014 2.14687e-014
lhumerus -14.1659 -14.4808 81.6803
lradius 124.347
lwrist -14.8117
lhand 20.8251 44.3169
lfingers 7.12502
lthumb 45.3029 67.6961
rfemur -30.3443 -11.2825 18.8552
rtibia 49.3337
rfoot -24.4038 -20.6375
rtoes -8.48257
lfemur -33.3728 -2.99308 -19.6957
ltibia 44.5287
lfoot -17.8821 1.33127
ltoes -12.6687
144
root -0.362784 17.2558 -1.0254 8.83284 15.0941 2.75468
lowerback 15.0288 3.55494 1.08884
upperback 5.25087 4.85108 -0.150583
thorax -2.73762 2.4248 -1.59115
lowerneck -1.21599 -3.62217 -5.05212
upperneck 2.06814 -4.77015 2.19148
head 1.03168 -2.39784 1.4692
rclavicle -5.4467e-014 9.54166e-015
rhumerus -13.6741 13.4359 -87.1868
rradius 128.209
rwrist 24.9098
rhand 35.1959 -6.47347
rfingers 7.12502
rthumb 58.3077 -21.9156
lclavicle -5.4467e-014 9.54166e-015
lhumerus -13.8484 -14.3219 81.197
lradius 124.618
lwrist -14.3549
lhand 20.7266 44.255
lfingers 7.12502
lthumb 45.2114 67.6709
rfemur -30.9366 -11.4931 18.8669
rtibia 49.8749
rfoot -24.323 -20.5589
rtoes -9.15382
lfemur -33.8927 -2.93632 -19.74
ltibia 44.934
lfoot -17.9518 1.20415
ltoes -12.4887
